<svg width="103" height="102" viewBox="0 0 103 102" fill="none" xmlns="http://www.w3.org/2000/svg">
<path d="M36.4114 0L41.3945 0.939393C43.8873 1.62598 46.9739 3.12688 48.8784 4.87793C49.824 5.74547 50.3424 6.82058 51.1188 7.64022C51.2585 7.78658 51.2988 8.04206 51.5889 7.97021C53.7809 4.34835 57.5766 2.09966 61.5899 0.947377L66.5676 0.00266117H71.5936C73.5975 0.457721 74.4196 1.47429 74.6049 3.49146C75.0213 8.02343 73.885 14.0244 71.4781 17.915C67.8677 23.7456 61.109 25.7708 54.5062 25.8985V35.6597C56.443 34.4169 59.9459 31.5535 62.3528 32.1682C63.9887 32.586 64.8779 34.2626 64.4615 35.8646C63.9861 37.6955 62.5623 37.6396 61.2058 38.414C58.4953 39.9655 55.6989 42.584 54.85 45.663C54.0576 48.5344 54.2886 47.9862 56.6122 48.2098C81.5463 50.6208 101.806 71.4152 102.948 96.3157C103.066 98.8678 103.259 101.619 100.044 102H2.92963C1.44411 101.856 0.68927 101.026 0.0257595 99.7992C0.0848576 98.4793 -0.0548288 97.1301 0.0257595 95.8154C1.48978 71.6307 20.4737 51.7704 44.5831 48.4333C45.1982 48.3481 48.1343 48.2257 48.2848 48.1193C48.7334 47.8053 48.2686 46.1686 48.1289 45.6604C47.4332 43.1349 45.1821 40.6068 43.0277 39.1618C40.9539 37.77 37.4107 37.4693 38.6142 33.9539C40.1023 29.6082 46.3667 34.0523 48.4728 35.657V25.8958C41.9183 25.8054 35.0763 23.6844 31.5009 17.9123C29.0805 14.0057 27.955 8.04472 28.3741 3.48879C28.5433 1.65525 29.4298 0.260795 31.3854 0L36.4114 0ZM48.4728 19.9215C48.3439 16.8452 47.8469 13.4522 46.0659 10.8523C43.5059 7.11597 38.6813 6.14198 34.4021 5.97699C34.5176 9.38595 35.1408 13.1621 37.4134 15.8419C40.0433 18.9422 44.575 19.7805 48.4755 19.9215H48.4728ZM68.5769 5.97433C65.485 6.11537 62.0385 6.60236 59.4248 8.3614C55.6666 10.8895 54.6485 15.6823 54.5035 19.9215C57.6948 19.8337 61.4287 19.2456 64.0183 17.2976C67.4728 14.6976 68.4399 10.0592 68.5769 5.97699V5.97433ZM35.0038 56.973C37.8566 59.5756 40.3575 63.767 44.5562 64.1395C49.687 64.5946 53.1201 63.2001 57.9849 66.17C59.3576 67.0083 60.4482 68.4001 61.8075 69.1558C68.5339 72.9028 72.5177 65.5633 76.8103 61.8376C76.8936 61.4677 74.5861 60.185 74.1375 59.9242C65.5387 54.9266 54.8554 53.0584 44.9833 54.4103C41.5583 54.8787 38.2622 55.8952 35.0038 56.973ZM92.0953 78.8824C89.6454 73.8102 86.0726 69.3421 81.917 65.5499C76.1979 70.3959 72.7487 76.8652 64.0559 76.0908C59.6773 75.6997 58.3099 73.7863 55.1724 71.5456C52.0348 69.3049 47.7287 70.4199 43.9518 70.1139C37.2334 69.571 33.6392 63.8841 29.0752 59.7938C24.0626 62.7717 19.1333 66.665 15.625 71.3327C15.3617 71.6839 14.9346 72.0751 14.8997 72.5062H18.0158C23.759 72.5062 28.1054 79.2417 31.9844 82.3685C35.0038 84.8035 37.4402 83.8694 40.8303 84.7583C44.712 85.7748 48.0564 88.6915 49.7112 92.292C50.0308 92.9893 50.7427 95.5333 50.9791 95.8154C51.0892 95.9485 51.2074 96.0124 51.382 96.015L60.3273 95.9086C66.4977 90.6395 71.7843 82.2781 79.8297 79.7739C80.649 79.5184 83.0183 78.8798 83.7517 78.8798H92.0953V78.8824ZM44.6529 96.015C44.027 93.4071 41.8216 91.2143 39.2239 90.5383C37.5396 90.0992 35.9064 90.2935 34.1898 89.9502C27.9657 88.6968 25.5481 83.6965 21.1345 80.1757C18.0453 77.7115 14.5881 78.6243 10.9025 78.5072C8.3962 84.0211 6.36269 89.8917 6.25793 96.0124H44.6556L44.6529 96.015ZM68.7757 96.015H96.7183C96.67 92.2229 95.8319 88.4174 94.5854 84.8488C89.734 85.0989 84.896 84.1143 80.2971 86.0197C75.76 87.9011 72.3028 92.7471 68.773 96.015H68.7757Z" fill="#499953"/>
</svg>
