<svg width="110" height="102" viewBox="0 0 110 102" fill="none" xmlns="http://www.w3.org/2000/svg">
<path d="M108.873 69.0593C106.907 65.5229 103.07 63.8202 99.0884 64.7196L72.8908 72.392C72.755 72.0515 72.5838 71.4752 72.4776 71.1259C72.3418 70.6689 72.2237 70.276 72.1204 70.046C71.2645 68.1716 69.2486 66.3408 67.6991 65.4996L67.5958 65.456C63.9211 64.2917 60.2789 62.5512 56.7548 60.8688C47.7409 56.564 38.4171 52.1107 27.9805 57.0588C23.2699 59.2912 18.5711 62.1611 14.0258 64.935C9.92316 67.441 5.67888 70.0315 1.46116 72.133L1.36081 72.1941C-0.492739 73.6378 -0.165121 74.5401 0.631788 76.1409L0.746897 76.3767C2.23446 79.3979 4.12048 82.4017 5.94156 85.3036C7.72428 88.1444 9.56898 91.0841 11.0329 94.0268L11.0772 94.117L12.5234 95.4938L55.2761 101.941L55.3352 101.947C55.9284 101.976 56.5158 101.99 57.0972 101.99C61.0198 101.99 64.6118 101.33 67.7935 100.02L67.8466 99.9936C73.2184 97.1325 78.7879 94.379 84.1715 91.7128C90.5261 88.5694 97.0991 85.3182 103.409 81.8632C103.61 81.7526 103.826 81.6391 104.047 81.5198C105.195 80.9086 106.494 80.2158 107.332 79.4038C110.207 76.6154 110.812 72.5521 108.87 69.0564L108.873 69.0593ZM67.9529 74.7409C67.7669 76.9792 66.1318 78.7954 63.7824 79.3892L46.6075 77.8466L46.4983 77.8786C45.0108 78.3239 44.1076 79.3717 44.1962 80.5476C44.2906 81.7847 45.4151 82.7393 47.065 82.9809C51.3241 83.6009 57.5695 84.2965 61.9259 84.4479C66.9582 84.6254 70.9044 82.1019 72.5396 77.6894L100.464 69.5803C102.096 69.2893 103.663 70.0199 104.457 71.4432C105.077 72.5521 105.257 74.249 103.902 75.684C103.507 76.1031 102.852 76.4669 102.27 76.79C102.128 76.8686 101.99 76.9472 101.857 77.0229C95.6735 80.5797 88.9677 83.8279 82.4832 86.9685C76.9521 89.6463 71.232 92.4172 65.8573 95.3686C62.9176 96.5911 59.4909 97.1266 55.6746 96.9549L15.109 90.9532L6.02125 75.227L31.0708 61.1075C38.7565 57.8214 46.764 61.6547 54.5087 65.3628C58.0181 67.0423 61.3356 68.6315 64.6295 69.5978C67.3065 70.7271 68.1064 72.9916 67.9617 74.7409H67.9529Z" fill="#EAB54D"/>
<path d="M46.398 25.6086C40.8609 28.1525 36.4838 32.2129 34.586 36.5963C33.3434 39.4662 33.4408 42.3302 34.8575 44.6588C36.3451 47.1037 39.1254 48.6696 42.4843 48.9607C45.7368 49.2401 50.0165 49.3624 54.3405 49.3624C58.933 49.3624 63.5758 49.2285 67.091 49.0043C72.2119 48.6784 75.6121 46.0035 76.1905 41.8413C77.2472 34.227 69.1512 28.2486 63.6259 25.6203C67.3891 22.1304 68.6111 16.8854 66.7191 12.0043C64.7534 6.93106 59.9425 3.80795 54.4615 4.05244C49.137 4.28821 44.7835 7.55103 43.107 12.569C41.5339 17.2755 42.8266 22.2934 46.4009 25.6115L46.398 25.6086ZM62.3952 17.9158C61.6927 20.6809 59.3669 23.0473 56.6043 23.8011C54.1368 24.4735 51.6782 23.7662 49.6859 21.7986C46.1294 18.2913 47.2303 13.9428 49.7597 11.3843C52.2538 8.86373 56.5866 7.69365 60.2051 11.0845C62.2476 12.9997 63.0238 15.4243 62.3952 17.91V17.9158ZM52.3541 29.1713C57.23 28.627 61.7222 29.6952 65.3378 32.2565C66.9051 33.3655 68.5078 34.9984 69.6234 36.6196C70.9014 38.4766 71.4386 40.1706 71.1405 41.393C70.8099 42.7552 69.4227 43.6313 67.0202 44.0039C63.2541 43.7797 59.2813 43.9107 55.4384 44.0388C51.2945 44.1756 47.0119 44.3182 43.0244 44.0097C41.1118 43.8612 39.7866 43.2064 39.1933 42.109C38.5735 40.9681 38.783 39.3672 39.7836 37.6034C42.2511 33.2549 47.5372 29.7097 52.3541 29.1713Z" fill="#EAB54D"/>
<path d="M12.5884 44.8901C14.4655 45.0822 17.5203 45.1811 20.5634 45.1811C23.3525 45.1811 26.1329 45.0996 27.9894 44.9308C29.4533 44.7998 30.5424 43.9586 30.7608 42.7886C30.9675 41.6854 30.3329 40.6289 29.105 40.0351L29.0047 39.9885L28.8955 39.9798C26.3572 39.7615 23.6624 39.8634 21.0563 39.9594C18.4855 40.0555 15.8291 40.1515 13.3882 39.9391C12.3995 39.8517 11.4255 39.4501 10.844 38.8912C10.0678 38.1461 9.76082 37.2525 9.89954 36.161C10.3216 32.8662 14.7813 28.8146 17.1573 27.4699C22.9984 24.1663 29.5005 24.2769 35.9644 27.7959L36.0263 27.8279L36.0942 27.8454C36.5871 27.9792 37.1715 27.8628 37.7294 27.5135C38.4141 27.0857 38.9277 26.4191 39.0369 25.8137C39.459 23.4677 36.4632 22.3442 34.586 21.7243C35.7223 20.9268 36.6344 19.4889 37.0151 18.8224C38.9661 15.4198 39.2169 11.377 37.7028 7.7241C36.2625 4.24298 33.3788 1.66415 29.7957 0.64834C24.1672 -0.949601 18.5622 1.08785 15.5104 5.83801C12.3936 10.69 12.9425 16.6918 16.9064 21.1334C17.1248 21.3779 17.3757 21.5496 17.6 21.7039C17.6207 21.7185 17.6414 21.733 17.665 21.7476C12.4939 23.6395 5.32174 29.5976 4.8554 35.544C4.4776 40.3815 7.80101 44.4011 12.5884 44.893V44.8901ZM18.7924 13.3184C18.4471 9.90126 20.1383 5.90495 24.6748 5.20058C27.706 4.73197 30.262 5.63718 31.8647 7.75612C33.612 10.0613 33.9455 13.5192 32.6764 16.162C31.5341 18.54 29.3146 19.9168 26.431 20.0419C21.6554 20.2457 19.1437 16.814 18.7895 13.3184H18.7924Z" fill="#EAB54D"/>
<path d="M76.6333 26.66C77.1882 26.3718 77.7106 26.0982 78.1504 25.9556C86.0102 23.4262 94.2656 26.1943 98.6929 32.8422C99.9355 34.7079 100.381 36.7773 99.8233 38.1104C99.4544 38.9923 98.6486 39.5716 97.4238 39.8277C95.1245 40.308 91.9015 40.142 88.7876 39.982C86.3585 39.8568 83.8438 39.7258 81.7955 39.9121C80.4585 40.0344 79.4667 40.8231 79.269 41.9234C79.0653 43.0614 79.7383 44.1733 80.9868 44.7554L81.1107 44.8136H81.2465C83.2683 44.7845 85.4111 44.8544 87.486 44.9242C89.2805 44.9853 91.1105 45.0465 92.9138 45.0465C94.2066 45.0465 95.4846 45.0145 96.7302 44.93C99.537 44.7379 101.76 43.6523 103.33 41.6992C105.163 39.4202 105.644 36.6609 104.723 33.7154C103.091 28.5111 97.2496 23.4903 92.4947 21.7381C92.8105 21.4994 93.0673 21.1996 93.2946 20.9377L93.3536 20.8707C96.8482 16.8278 97.5271 11.4402 95.1216 6.8065C92.7781 2.29501 88.0615 -0.240156 82.8138 0.184797C78.0146 0.574823 74.0832 3.37195 72.3005 7.66805C70.444 12.1446 71.3265 17.2528 74.6056 21.0017C74.7384 21.153 74.948 21.3189 75.1929 21.511C75.2608 21.5663 75.3523 21.6362 75.4409 21.709C74.1068 22.1194 71.5655 23.1032 71.0402 24.7535C70.8719 25.2832 70.8483 26.104 71.6924 27.0092C73.0885 28.5082 75.0513 27.4808 76.6274 26.6571L76.6333 26.66ZM76.6156 13.3176C76.2702 9.90051 77.9615 5.9042 82.4979 5.19983C85.5321 4.73121 88.0852 5.63642 89.6878 7.75537C91.4351 10.0606 91.7687 13.5184 90.4995 16.1613C89.3573 18.5393 87.1377 19.916 84.2541 20.0412C79.4697 20.2537 76.9668 16.8133 76.6126 13.3176H76.6156Z" fill="#EAB54D"/>
</svg>
