<svg width="115" height="102" viewBox="0 0 115 102" fill="none" xmlns="http://www.w3.org/2000/svg">
<path d="M115 28.4415V33.6273C114.586 36.2323 114.166 38.7831 113.308 41.2826C109.893 51.1996 100.827 56.7107 93.9913 64.0559C98.0514 71.0577 93.3401 80.267 85.1268 80.2911C84.9378 86.2569 79.9864 90.9067 74.1288 91.1206C74.1649 95.9631 70.6959 100.399 66.0296 101.592C57.5673 103.751 53.9753 96.8756 48.6249 92.018C41.8941 100.622 28.2763 96.8395 27.8472 85.6998C21.6085 85.8082 16.5011 80.6524 16.3901 74.4306C5.62916 74.3071 1.33799 60.7251 9.64726 54.0275C-3.22325 42.0717 -3.20825 20.482 9.64726 8.48702C18.9408 -0.183191 32.4745 -2.43582 44.0997 2.77414C50.2273 5.52066 54.3294 10.2458 58.9567 14.9106C62.9538 11.2576 66.5008 6.91199 71.4131 4.42145C90.2402 -5.12512 113.29 7.22519 115 28.4384V28.4415ZM47.1725 71.0366C51.9168 72.6207 54.7736 77.7343 54.3475 82.6521C54.2094 84.2512 53.4742 85.5492 53.1051 87.0459C55.3647 88.7173 59.4218 94.5145 61.9755 95.0687C65.4025 95.8095 68.0252 93.1232 67.329 89.6961C66.8429 87.3049 61.0363 83.3689 59.5539 81.0439C57.3753 77.6228 61.2823 74.1114 64.4632 76.5658C67.6831 79.0503 72.1903 87.1965 76.8896 83.1882C78.9872 81.3993 78.7501 78.9298 77.1507 76.9091C75.7883 75.1835 70.2338 70.7023 69.9007 69.0821C69.3065 66.2061 71.6592 63.9475 74.4319 64.9864C76.8776 65.9019 80.4096 71.1992 82.7652 72.8556C85.9521 75.0962 89.9852 71.7142 88.3857 68.1184L64.3192 43.7913C60.9853 46.598 58.4286 50.3624 53.7293 50.9256C42.0921 52.3229 35.5563 39.9907 42.5572 30.923L54.1194 19.5574C50.5874 16.1032 47.2325 12.0647 42.8213 9.69766C31.2802 3.50293 16.9963 7.3848 10.2324 18.5455C4.27579 28.3722 5.97125 41.4754 14.4816 49.1819C20.4172 42.8456 30.9291 45.4898 33.4858 53.6751C42.5362 50.4046 51.4427 58.4755 48.5769 67.8444C48.2228 69.0068 47.3705 69.9223 47.1755 71.0396L47.1725 71.0366ZM85.2349 7.82749C74.702 7.82749 68.8114 14.7751 61.8675 21.4457C57.0152 26.1075 52.3189 30.9591 47.4936 35.6481C44.6758 39.9124 47.7577 44.9176 52.871 44.1978C55.8269 43.7822 58.3565 38.7289 61.4564 37.4851C64.0251 36.4521 67.0169 36.931 69.0695 38.8041L89.28 59.0929L100.068 48.959C116.536 35.1271 106.523 7.82749 85.2379 7.82749H85.2349ZM22.4097 52.3862C21.9896 52.4073 21.1914 52.6301 20.7893 52.8078C19.4539 53.392 13.0742 59.7735 12.441 61.1136C10.5115 65.1972 14.8897 69.2448 18.8418 67.0885C19.9041 66.5073 26.1638 60.2192 26.6769 59.1712C28.2193 56.0211 25.9327 52.2085 22.4067 52.3892L22.4097 52.3862ZM36.7717 59.8277C35.9674 59.9692 35.2112 60.5113 34.5811 61.0112C33.0956 62.1947 24.4713 70.7836 23.7931 72.0515C21.4675 76.4182 26.2358 80.7579 30.2989 78.1318L41.732 66.6127C43.6075 63.035 40.7897 59.129 36.7687 59.8307L36.7717 59.8277ZM42.1611 76.9603C41.4829 77.0747 40.7417 77.4964 40.1956 77.915C39.3133 78.5896 36.1115 81.7818 35.4843 82.6551C32.3995 86.9466 37.4828 92.1174 41.759 89.1781C42.5362 88.6451 46.1492 85.0192 46.7134 84.2332C49.183 80.797 46.1672 76.2887 42.1611 76.9633V76.9603Z" fill="#94B858"/>
</svg>
