<svg width="216" height="216" viewBox="0 0 216 216" fill="none" xmlns="http://www.w3.org/2000/svg">
<g clip-path="url(#clip0_27_1684)">
<path d="M212.596 107.835C212.596 165.581 165.785 212.393 108.038 212.393C50.2916 212.393 3.47974 165.581 3.47974 107.835C3.47974 50.0882 50.2916 3.27637 108.038 3.27637C165.785 3.27637 212.596 50.0882 212.596 107.835Z" fill="white"/>
<path d="M43.3575 46.6973C43.3575 47.472 43.4845 48.1959 43.7512 48.8563C44.0179 49.5167 44.3735 50.139 44.8307 50.7105C45.2879 51.282 45.8213 51.8154 46.4182 52.3106C47.0151 52.8059 47.6501 53.2885 48.3232 53.7457L47.0659 55.6253C46.6595 55.384 46.2404 55.0792 45.7832 54.7109C45.3387 54.3426 44.8942 53.9489 44.4624 53.5171C44.0306 53.098 43.6242 52.6535 43.2432 52.1837C42.8622 51.7265 42.5447 51.282 42.278 50.8502C41.7954 51.7392 41.1477 52.6536 40.3349 53.6187C39.5348 54.5712 38.5823 55.4348 37.5028 56.1968L36.0424 54.2918C36.6647 53.8854 37.2742 53.4155 37.8711 52.8694C38.468 52.3234 39.0141 51.7265 39.484 51.0661C39.9666 50.4057 40.3476 49.7199 40.6397 48.9706C40.9318 48.234 41.0715 47.4593 41.0715 46.6465V41.5538H42.5066C42.8749 41.5538 43.1035 41.6681 43.1924 41.8967C43.2813 42.1253 43.3321 42.4301 43.3321 42.8238V46.6719L43.3575 46.6973ZM50.9393 67.5124V60.845C50.9393 60.591 50.8505 60.4513 50.6727 60.4513H40.7286V57.9621H51.4981C51.9807 57.9621 52.3744 58.1272 52.6792 58.4701C52.984 58.813 53.1364 59.3083 53.1364 59.956V65.8234C53.1364 66.4583 53.0602 66.8901 52.8951 67.1441C52.73 67.3981 52.476 67.5124 52.1077 67.5124H50.9393ZM50.9902 56.527V41.2236H53.1872V54.7871C53.1872 55.384 53.1237 55.8158 52.984 56.1079C52.8443 56.4 52.5776 56.5397 52.1585 56.5397H50.9902V56.527Z" fill="#27BDBE"/>
<path d="M52.1077 67.6141H50.9393H50.8504V60.8577C50.8504 60.6164 50.7996 60.5656 50.6853 60.5656H40.6523V57.8859H51.5108C52.0188 57.8859 52.4379 58.0637 52.7554 58.432C53.0728 58.8003 53.2379 59.3083 53.2379 59.9814V65.8488C53.2379 66.4838 53.1617 66.9283 52.9839 67.2204C52.8062 67.4998 52.5141 67.6395 52.1331 67.6395H52.1204L52.1077 67.6141ZM52.1077 67.4236C52.4506 67.4236 52.6792 67.3093 52.8188 67.0934C52.9585 66.8775 53.0474 66.4457 53.0474 65.8234V59.956C53.0474 59.321 52.8951 58.8511 52.6157 58.5336C52.3236 58.2161 51.968 58.051 51.4981 58.051H40.8174V60.3624H50.6599C50.9012 60.3624 51.0155 60.5656 51.0155 60.845V67.4236H52.095H52.1077ZM52.1712 56.616H51.0028H50.9139V41.1221H53.3014V54.7745C53.3014 55.3714 53.2379 55.8159 53.0855 56.1334C52.9331 56.4509 52.6157 56.616 52.1839 56.616H52.1712ZM52.1712 56.4382C52.5649 56.4382 52.7934 56.3112 52.9204 56.0572C53.0474 55.7905 53.1109 55.3714 53.1109 54.7872V41.3126H51.0917V56.4382H52.1712ZM35.928 54.2919L36.0169 54.2411C36.6265 53.8347 37.2361 53.3648 37.833 52.8187C38.4299 52.2726 38.9633 51.6884 39.4332 51.028C39.903 50.3803 40.284 49.6945 40.5761 48.9579C40.8555 48.234 41.0079 47.472 41.0079 46.6719V41.4904H42.5319C42.9129 41.4904 43.1923 41.6174 43.3066 41.8968C43.4082 42.1381 43.459 42.4683 43.459 42.862V46.71C43.459 47.472 43.586 48.1832 43.8527 48.8309C44.1067 49.4913 44.4623 50.1009 44.9195 50.6597C45.3767 51.2312 45.8974 51.7519 46.4943 52.2472C47.0912 52.7425 47.7262 53.2251 48.3993 53.6823L48.4755 53.7331L47.1166 55.7651L47.0404 55.727C46.634 55.4857 46.2022 55.1809 45.745 54.7999C45.2878 54.4316 44.8433 54.0379 44.4115 53.6061C43.9797 53.1743 43.5733 52.7298 43.1796 52.2726C42.8367 51.8535 42.5446 51.4598 42.2906 51.0661C41.808 51.917 41.1857 52.7933 40.411 53.7077C39.5982 54.6729 38.6458 55.5365 37.5663 56.2985L37.4901 56.3493L35.928 54.2919ZM37.5409 56.0953C38.5823 55.3587 39.4966 54.5205 40.284 53.5934C41.0841 52.6409 41.7318 51.7138 42.2144 50.8375L42.2906 50.6978L42.3795 50.8375C42.6335 51.2566 42.951 51.7011 43.332 52.1583C43.713 52.6155 44.1194 53.06 44.5512 53.4791C44.983 53.8982 45.4148 54.2919 45.872 54.6602C46.2911 55.0031 46.6848 55.2952 47.0658 55.5238L48.2215 53.7839C47.5738 53.3394 46.9642 52.8695 46.38 52.3869C45.7704 51.8789 45.237 51.3455 44.7798 50.774C44.3226 50.1898 43.9543 49.5675 43.6876 48.8944C43.4209 48.2213 43.2939 47.4847 43.2939 46.6973V42.8493C43.2939 42.4683 43.2431 42.1762 43.1542 41.9603C43.078 41.7698 42.9002 41.6809 42.5573 41.6682H41.2111V46.6719C41.2111 47.4974 41.0714 48.2848 40.7666 49.0341C40.4745 49.7834 40.0808 50.4819 39.5983 51.1423C39.1157 51.8027 38.5696 52.4123 37.9727 52.9584C37.4012 53.4791 36.817 53.9363 36.2201 54.3427L37.5663 56.108L37.5409 56.0953Z" fill="#27BDBE"/>
<path d="M54.7493 53.1488H72.9736V54.3425C72.9736 55.2315 72.6688 55.676 72.0465 55.676H64.9727V58.2541H70.4464V63.9564C70.4464 65.1248 70.2305 66.0138 69.8241 66.6488C69.405 67.2837 68.7319 67.6012 67.8048 67.6012H59.2196C58.7116 67.6012 58.2671 67.3599 57.8988 66.8774C57.5305 66.3948 57.34 65.6963 57.34 64.7692V58.2414H62.801V55.6633H54.762V53.1488H54.7493ZM58.8894 43.8778H56.6289V41.4648H71.1194V43.8778H68.8589V47.5354C68.8589 47.7386 68.8462 47.9418 68.8208 48.1323C68.7954 48.3228 68.7573 48.526 68.7192 48.7292H71.5639V49.8087C71.5639 50.6977 71.2464 51.1422 70.6114 51.1422H56.2733V48.7292H59.0418C59.0037 48.5514 58.9656 48.3482 58.9402 48.145C58.9148 47.9418 58.9021 47.7259 58.9021 47.51V43.8778H58.8894ZM67.3095 65.1121C67.6143 65.1121 67.8556 65.0486 68.0334 64.9343C68.1985 64.82 68.2874 64.5406 68.2874 64.1215V60.7179H59.499V64.4517C59.499 64.8962 59.6514 65.1121 59.9689 65.1121H67.3222H67.3095ZM66.0268 48.7292C66.2808 48.7292 66.4586 48.6276 66.5475 48.4244C66.6364 48.2212 66.6745 47.9291 66.6745 47.5608V43.8778H61.0738V47.5862C61.0738 47.9418 61.1246 48.2085 61.2135 48.4117C61.3024 48.6149 61.4675 48.7165 61.6961 48.7165H66.0141L66.0268 48.7292Z" fill="#27BDBE"/>
<path d="M57.8227 66.9409C57.429 66.4329 57.2512 65.7217 57.2512 64.7819V58.1526H62.7121V55.765H54.6731V53.0599H73.0753V54.3426C73.0753 55.2443 72.7324 55.765 72.0466 55.765H65.0743V58.1526H70.548V63.9437C70.548 65.1121 70.3321 66.0392 69.9003 66.6996C69.4685 67.36 68.7573 67.7029 67.8048 67.6902H59.207C58.6736 67.6902 58.191 67.4235 57.8227 66.9282V66.9409ZM57.429 64.7692C57.429 65.6836 57.6068 66.3567 57.9624 66.8139C58.318 67.2838 58.7371 67.4997 59.207 67.4997H67.7921C68.7065 67.4997 69.3288 67.1949 69.7352 66.5853C70.1416 65.9757 70.3448 65.0867 70.3448 63.9437V58.3304H64.8711V55.5745H72.0339C72.5927 55.5745 72.8594 55.2062 72.8721 54.3426V53.2504H54.8382V55.5872H62.8772V58.343H57.4163V64.7819L57.429 64.7692ZM59.969 65.201C59.6007 65.201 59.4102 64.8962 59.4102 64.439V60.6163H68.3763V64.1088C68.3763 64.5406 68.3001 64.8454 68.0842 64.9978C67.8937 65.1375 67.6397 65.201 67.3095 65.201V65.0105C67.6016 65.0105 67.8302 64.947 67.9699 64.8454C68.0969 64.7565 68.1858 64.5152 68.1858 64.1088V60.7941H59.588V64.439C59.588 64.8708 59.715 65.0105 59.9563 65.0105H67.3095V65.201H59.9563H59.969ZM56.1717 51.2184V48.6276H58.9149C58.8895 48.4752 58.8514 48.3101 58.8387 48.145C58.8133 47.9418 58.8006 47.7259 58.8006 47.4973V43.9668H56.54V41.376H71.2084V43.9668H68.9478V47.5354C68.9478 47.7386 68.9351 47.9418 68.9097 48.145C68.8843 48.3101 68.8589 48.4752 68.8335 48.6403H71.6656V49.8087C71.6656 50.7104 71.31 51.2311 70.6242 51.2311H56.1844L56.1717 51.2184ZM56.3622 51.0406H70.6115C71.183 51.0406 71.4624 50.6723 71.4624 49.8087V48.8181H68.5922L68.6176 48.7038C68.6557 48.5006 68.6938 48.3101 68.7192 48.1196C68.7446 47.9291 68.7573 47.7386 68.7573 47.5354V43.789H71.0179V41.5665H56.7178V43.789H58.8895H58.9784V47.51C58.9784 47.7259 58.9911 47.9291 59.0165 48.1323C59.0419 48.3355 59.08 48.526 59.1181 48.7038L59.1435 48.8181H56.3495V51.0406H56.3622ZM66.0268 48.8181V48.6403C66.2554 48.6403 66.3824 48.5641 66.4586 48.3863C66.5348 48.1958 66.5856 47.9291 66.5856 47.5608V43.9668H61.1754V47.5862C61.1754 47.9291 61.2262 48.1958 61.3024 48.3736C61.3913 48.5514 61.5056 48.6149 61.7088 48.6276H66.0268V48.8054H61.7088C61.4548 48.8054 61.2389 48.6784 61.1373 48.4498C61.0357 48.2212 60.985 47.9418 60.985 47.5735V43.7763H66.7634V47.5481C66.7634 47.9291 66.7253 48.2212 66.6237 48.4371C66.5348 48.6657 66.3062 48.7927 66.0395 48.7927H66.0268V48.8181Z" fill="#27BDBE"/>
<path d="M73.0117 48.8563C73.0117 47.7514 73.1514 46.7735 73.4181 45.9226C73.6848 45.0717 74.0531 44.3605 74.523 43.7763C74.9929 43.1921 75.539 42.7476 76.174 42.4428C76.809 42.138 77.4948 41.9856 78.2314 41.9856C78.968 41.9856 79.6411 42.138 80.2634 42.4428C80.8857 42.7476 81.4318 43.1921 81.889 43.7763C82.3462 44.3605 82.7017 45.0717 82.9684 45.9226C83.2351 46.7735 83.3748 47.7514 83.3875 48.8563C83.3875 49.9104 83.2605 50.8629 83.0065 51.7265C82.7525 52.59 82.3842 53.3139 81.9271 53.9108C81.4572 54.5077 80.9111 54.9776 80.2761 55.2951C79.6411 55.6126 78.968 55.7777 78.2314 55.7777C77.4948 55.7777 76.8471 55.6253 76.2121 55.3205C75.5771 55.0157 75.031 54.5712 74.5611 53.987C74.0912 53.4028 73.7102 52.6917 73.4435 51.8281C73.1641 50.9645 73.0244 49.9739 73.0244 48.8563M75.2215 48.8309C75.2215 49.5675 75.3104 50.2152 75.4882 50.7486C75.666 51.2947 75.8946 51.7392 76.174 52.1075C76.4534 52.463 76.7836 52.7424 77.1392 52.9202C77.5075 53.098 77.8631 53.1996 78.2314 53.1996C78.6759 53.1996 79.0823 53.098 79.4379 52.8821C79.8062 52.6662 80.111 52.3742 80.365 51.9805C80.619 51.5868 80.8222 51.1296 80.9619 50.5962C81.1016 50.0628 81.1778 49.4659 81.1778 48.8309C81.1778 48.1959 81.1016 47.599 80.9492 47.0783C80.7968 46.5576 80.5809 46.1004 80.3269 45.7194C80.0602 45.3384 79.7554 45.0463 79.3998 44.8431C79.0442 44.6399 78.6505 44.5383 78.2441 44.5383C77.8377 44.5383 77.4186 44.6526 77.0503 44.8685C76.682 45.0844 76.3645 45.3892 76.0978 45.7829C75.8311 46.1766 75.6152 46.6211 75.4628 47.1545C75.3104 47.6752 75.2342 48.234 75.2342 48.8309M78.0663 67.5124C77.571 67.5124 77.1646 67.3092 76.8471 66.9028C76.5296 66.4964 76.3772 65.9757 76.3772 65.3281V58.94H78.6251V64.4518C78.6251 64.8074 78.714 64.9725 78.8918 64.9725H88.6453V66.3821C88.6453 67.1441 88.3405 67.5124 87.7436 67.5124H78.0917H78.0663ZM85.9402 60.2989V41.2236H88.1246V47.9546H90.8678V50.4692H88.1246V58.7495C88.1246 59.3337 88.0611 59.7401 87.9468 59.9687C87.8198 60.1846 87.5658 60.2989 87.1848 60.2989H85.9529H85.9402Z" fill="#27BDBE"/>
<path d="M78.0663 67.6141V67.4236H87.7182C88.277 67.4236 88.5183 67.1188 88.531 66.3822V65.0614H78.8664C78.5997 65.0614 78.5108 64.7947 78.5108 64.4391V59.0289H76.4534V65.3281C76.4534 65.9631 76.6058 66.4584 76.9106 66.8521C77.2154 67.2331 77.5837 67.4236 78.0663 67.4236V67.6141C77.5456 67.6141 77.1011 67.3982 76.7709 66.9664C76.4407 66.5473 76.2756 65.9885 76.2756 65.3281V58.8384H78.7013V64.4391C78.7013 64.782 78.7775 64.8709 78.8664 64.8709H88.7088V66.3695C88.7088 67.1442 88.3659 67.5887 87.7055 67.6014H78.0536L78.0663 67.6141ZM87.1721 60.3878H85.9403H85.8514V41.1348H88.2135V47.853H90.9567V50.5581H88.2135V58.7368C88.2135 59.3337 88.15 59.7528 88.023 59.9941C87.8833 60.2608 87.5785 60.3751 87.1849 60.3751L87.1721 60.3878ZM87.1721 60.1973C87.5531 60.1973 87.7563 60.0957 87.8579 59.9179C87.9595 59.7274 88.0357 59.3337 88.023 58.7495V50.3803H90.7662V48.0435H88.023V41.3253H86.0292V60.21H87.1721V60.1973ZM76.1613 55.4095C75.5136 55.092 74.9548 54.6475 74.4722 54.0506C73.9896 53.4537 73.6087 52.7298 73.3293 51.8662C73.0499 51.0026 72.9102 49.9993 72.9102 48.8563C72.9102 47.7387 73.0499 46.7608 73.3166 45.8972C73.5833 45.0336 73.9642 44.3097 74.4341 43.7255C74.904 43.1287 75.4628 42.6842 76.1105 42.3794C76.7582 42.0619 77.4567 41.9095 78.206 41.9095C78.9426 41.9095 79.6411 42.0619 80.2761 42.3794C80.9111 42.6842 81.4699 43.1414 81.9398 43.7255C82.4097 44.3224 82.778 45.0463 83.032 45.8972C83.2987 46.7608 83.4384 47.7387 83.4511 48.8563C83.4511 49.9104 83.3241 50.8756 83.0701 51.7519C82.8161 52.6155 82.4478 53.3521 81.9779 53.9617C81.508 54.5713 80.9492 55.0412 80.3015 55.3714C79.6538 55.7016 78.9553 55.8667 78.2187 55.8667C77.4948 55.8667 76.809 55.7143 76.1613 55.3968V55.4095ZM73.1007 48.8563C73.1007 49.9739 73.2404 50.9518 73.5071 51.8027C73.7738 52.6536 74.142 53.3648 74.6119 53.9363C75.0691 54.5078 75.6152 54.9396 76.2375 55.2444C76.8598 55.5492 77.5202 55.6889 78.2187 55.6889C78.9299 55.6889 79.603 55.5365 80.2126 55.219C80.8349 54.9015 81.3683 54.457 81.8255 53.8601C82.2827 53.2759 82.6383 52.552 82.8923 51.7011C83.1463 50.8502 83.2733 49.9104 83.2733 48.869C83.2606 47.7641 83.1209 46.7989 82.8669 45.9607C82.6129 45.1225 82.2573 44.4113 81.8001 43.8525C81.3556 43.281 80.8222 42.8493 80.2126 42.5445C79.603 42.2397 78.9426 42.1 78.2187 42.1C77.4948 42.1 76.8217 42.2524 76.1994 42.5445C75.5771 42.8366 75.0437 43.281 74.5865 43.8525C74.1293 44.424 73.7738 45.1225 73.5071 45.9734C73.2404 46.8116 73.1007 47.7768 73.1007 48.8817V48.8563ZM77.0884 53.0092C76.7074 52.8187 76.3772 52.5393 76.0851 52.171C75.793 51.8027 75.5644 51.3455 75.3866 50.7867C75.2088 50.2279 75.1199 49.5802 75.1199 48.8309C75.1199 48.234 75.1961 47.6625 75.3485 47.1291C75.5009 46.5957 75.7168 46.1258 75.9962 45.7321C76.2756 45.3384 76.5931 45.0209 76.9741 44.7923C77.3551 44.5637 77.7615 44.4494 78.2187 44.4494C78.6505 44.4494 79.0569 44.551 79.4252 44.7669C79.7935 44.9828 80.111 45.2749 80.3904 45.6686C80.6571 46.0496 80.873 46.5195 81.0254 47.0529C81.1778 47.5863 81.2667 48.1832 81.2667 48.8436C81.2667 49.4913 81.1905 50.0882 81.0508 50.6343C80.9111 51.1804 80.7079 51.6503 80.4412 52.044C80.1745 52.4377 79.857 52.7552 79.476 52.9711C79.095 53.187 78.6759 53.3013 78.2187 53.3013C77.8377 53.3013 77.4567 53.1997 77.0884 53.0092ZM75.5644 50.7232C75.7422 51.2566 75.9581 51.7011 76.2375 52.044C76.5169 52.3996 76.8217 52.6536 77.1773 52.8314C77.5329 53.0092 77.8758 53.0981 78.2314 53.0981C78.6632 53.0981 79.0442 52.9965 79.3998 52.7933C79.7554 52.5901 80.0475 52.298 80.3015 51.917C80.5555 51.536 80.746 51.0915 80.8857 50.5581C81.0254 50.0374 81.1016 49.4532 81.1016 48.8182C81.1016 48.1832 81.0254 47.599 80.873 47.091C80.7206 46.5703 80.5174 46.1258 80.2634 45.7575C80.0094 45.3892 79.7046 45.1098 79.3617 44.9066C79.0188 44.7161 78.6505 44.6145 78.2441 44.6145C77.825 44.6145 77.4567 44.7161 77.1011 44.932C76.7455 45.1479 76.4407 45.44 76.174 45.821C75.9073 46.202 75.7041 46.6465 75.5517 47.1672C75.3993 47.6879 75.3231 48.234 75.3231 48.8182C75.3231 49.5421 75.412 50.1771 75.5771 50.7105L75.5644 50.7232Z" fill="#27BDBE"/>
<path d="M91.7441 42.0491H101.663V43.1794C101.663 43.662 101.561 44.0049 101.358 44.2081C101.155 44.4113 100.926 44.5129 100.647 44.5129H97.7766V48.2467C97.7766 48.9833 97.9417 49.6818 98.2592 50.3168C98.5767 50.9645 98.983 51.5614 99.4656 52.1075C99.9482 52.6535 100.469 53.1361 101.028 53.5552C101.587 53.9743 102.107 54.3299 102.577 54.6093L101.18 56.6032C100.786 56.3619 100.38 56.0825 99.9736 55.7523C99.5545 55.4221 99.1481 55.0665 98.7544 54.6728C98.3608 54.2791 97.9798 53.8727 97.6242 53.4409C97.2686 53.0091 96.9638 52.5647 96.7098 52.1202C96.4431 52.6028 96.1129 53.098 95.7446 53.6187C95.3636 54.1394 94.9572 54.622 94.5254 55.0792C94.0809 55.5364 93.6364 55.9555 93.1919 56.3365C92.7474 56.7175 92.3029 57.0096 91.8965 57.2382L90.4995 55.3078C91.2234 54.8887 91.8965 54.3934 92.5188 53.8219C93.1411 53.2631 93.6745 52.6662 94.119 52.044C94.5635 51.4217 94.9064 50.7867 95.1731 50.139C95.4271 49.4786 95.5541 48.8563 95.5541 48.2467V44.5129H91.7568V42.0491H91.7441ZM96.913 67.5378C96.405 67.5378 95.9859 67.3346 95.6684 66.9282C95.3509 66.5218 95.1985 66.0011 95.1985 65.3535V58.9019H97.4464V64.4645C97.4464 64.8201 97.5353 64.9852 97.7131 64.9852H107.873V66.3948C107.873 66.7631 107.809 67.0425 107.67 67.233C107.53 67.4235 107.301 67.5251 106.984 67.5251H96.9257L96.913 67.5378ZM105.13 60.2989V49.7834H100.964V47.2053H105.13V41.2236H107.352V58.6352C107.352 59.2194 107.289 59.6512 107.162 59.9052C107.035 60.1592 106.768 60.2862 106.387 60.2862H105.13V60.2989Z" fill="#27BDBE"/>
<path d="M106.971 67.6395H96.913V67.4617H106.971C107.276 67.4617 107.467 67.3728 107.581 67.2077C107.695 67.0426 107.771 66.7759 107.771 66.4203V65.0995H97.7004C97.4337 65.0995 97.3448 64.8328 97.3448 64.4772V59.0035H95.2874V65.3535C95.2874 65.9885 95.4398 66.4838 95.7446 66.8775C96.0494 67.2585 96.4304 67.449 96.913 67.449V67.6268C96.3796 67.6268 95.9224 67.4109 95.5922 66.9791C95.262 66.5473 95.0969 66.0012 95.0969 65.3408V58.8003H97.5226V64.4518C97.5226 64.8074 97.5988 64.8836 97.6877 64.8836H107.937V66.3822C107.937 66.7632 107.873 67.0553 107.721 67.2839C107.568 67.5125 107.302 67.6141 106.971 67.6141V67.6395ZM106.387 60.3878H105.13H105.041V49.8723H100.875V47.1164H105.041V41.1348H107.454V58.6352C107.454 59.2321 107.39 59.6639 107.251 59.9433C107.111 60.2354 106.806 60.3878 106.4 60.3878H106.387ZM106.387 60.1973C106.755 60.1973 106.971 60.083 107.086 59.8671C107.2 59.6258 107.263 59.2194 107.263 58.6352V41.3126H105.231V47.2942H101.066V49.6818H105.231V60.1973H106.387ZM90.3472 55.2825L90.4361 55.2317C91.16 54.8126 91.8204 54.3173 92.4427 53.7585C93.0523 53.1997 93.5857 52.6155 94.0301 52.0059C94.4746 51.3963 94.8175 50.7613 95.0715 50.1136C95.3255 49.4659 95.4525 48.8436 95.4525 48.2467V44.6018H91.6553V41.9476H101.752V43.1795C101.752 43.662 101.65 44.043 101.421 44.2716C101.206 44.4875 100.939 44.6018 100.647 44.6018H97.8655V48.2467C97.8655 48.9706 98.0306 49.6437 98.3481 50.2787C98.6656 50.9137 99.072 51.5106 99.5419 52.044C100.024 52.5901 100.545 53.06 101.091 53.4918C101.65 53.9109 102.158 54.2665 102.628 54.5332L102.717 54.584L101.218 56.7302L101.142 56.6795C100.748 56.4382 100.342 56.1461 99.9229 55.8159C99.5038 55.4857 99.0974 55.1174 98.691 54.7364C98.2973 54.3427 97.9163 53.9363 97.548 53.4918C97.2305 53.0981 96.9384 52.7044 96.6971 52.298C96.4431 52.7425 96.1383 53.1997 95.7954 53.6696C95.4144 54.1903 95.008 54.6856 94.5635 55.1428C94.119 55.6127 93.6746 56.0318 93.2174 56.4127C92.7602 56.7937 92.3284 57.0985 91.8966 57.3271L91.8204 57.3652L90.3218 55.2825H90.3472ZM91.9093 57.1239C92.303 56.908 92.6967 56.6287 93.1285 56.2731C93.573 55.8921 94.0174 55.4857 94.4492 55.0158C94.881 54.5586 95.2874 54.076 95.6684 53.5553C96.0494 53.0473 96.3669 52.552 96.6336 52.0694L96.7098 51.9297L96.786 52.0694C97.04 52.5139 97.3448 52.9457 97.7004 53.3775C98.056 53.8093 98.4243 54.2157 98.8307 54.5967C99.2244 54.9777 99.6308 55.3333 100.05 55.6635C100.444 55.9683 100.812 56.2477 101.18 56.4635L102.463 54.6221C102.006 54.3554 101.523 54.0125 100.99 53.6188C100.431 53.187 99.8975 52.7044 99.4149 52.1583C98.9196 51.6122 98.5132 51.0026 98.1957 50.3549C97.8655 49.6945 97.7004 48.996 97.7004 48.2467V44.424H100.66C100.901 44.424 101.117 44.3351 101.307 44.1446C101.485 43.9668 101.587 43.6493 101.587 43.1921V42.1508H91.8585V44.4367H95.6557V48.2594C95.6557 48.8817 95.5287 49.5294 95.262 50.1898C95.008 50.8502 94.6524 51.4979 94.1952 52.1202C93.7507 52.7425 93.2047 53.3394 92.5824 53.9109C91.9855 54.457 91.3378 54.9396 90.6393 55.346L91.922 57.1366L91.9093 57.1239Z" fill="#27BDBE"/>
<path d="M108.457 54.2537H111.531V48.4372H113.69V54.2537H115.442C116.344 54.2537 117.233 54.2029 118.096 54.0886C118.96 53.9743 119.925 53.7457 120.992 53.4028V54.8379C120.992 55.257 120.916 55.5618 120.776 55.7396C120.636 55.9174 120.433 56.0571 120.166 56.1714C119.595 56.4127 118.757 56.5778 117.626 56.6667C116.496 56.7556 115.226 56.8064 113.804 56.8064H108.444V54.2664L108.457 54.2537ZM109.702 44.9574V42.4428H118.185C118.655 42.4428 118.998 42.6333 119.227 43.0016C119.443 43.3699 119.557 43.8144 119.557 44.3351V44.7288C119.557 45.2622 119.531 45.8718 119.468 46.5703C119.404 47.2561 119.316 47.9546 119.201 48.6658C119.087 49.3643 118.935 50.0374 118.769 50.6851C118.604 51.3328 118.414 51.8789 118.198 52.3234L116.522 51.5995C116.788 50.6089 117.004 49.5802 117.157 48.5261C117.309 47.472 117.385 46.4179 117.385 45.3765C117.385 45.2241 117.372 45.1225 117.334 45.0717C117.296 45.0209 117.233 44.9828 117.118 44.9828H109.702V44.9574ZM113.817 67.5124C113.321 67.5124 112.915 67.3092 112.597 66.9028C112.28 66.4964 112.127 65.9757 112.127 65.3281V58.9019H114.312L114.337 64.4391C114.337 64.7947 114.426 64.9598 114.604 64.9598H124.637V66.3694C124.637 66.7377 124.573 67.0171 124.434 67.2076C124.294 67.3981 124.065 67.4997 123.748 67.4997H113.829L113.817 67.5124ZM121.881 60.5656V41.2236H124.078V49.5802H126.821V52.0948H124.078V58.9273C124.078 60.0195 123.71 60.5656 122.986 60.5656H121.881Z" fill="#27BDBE"/>
<path d="M112.521 66.9664C112.191 66.5473 112.026 65.9885 112.026 65.3281V58.813H114.388L114.413 64.4391C114.413 64.7947 114.49 64.8709 114.579 64.8709H124.713V66.3695C124.713 66.7505 124.65 67.0553 124.497 67.2712C124.345 67.4998 124.078 67.6014 123.735 67.6014H113.817V67.4109H123.735C124.04 67.4109 124.23 67.322 124.345 67.1569C124.459 66.9918 124.535 66.7251 124.535 66.3695V65.0487H114.591C114.325 65.0487 114.236 64.782 114.236 64.4264L114.21 58.9908H112.216V65.3154C112.216 65.9504 112.369 66.4457 112.674 66.8394C112.978 67.2204 113.347 67.4109 113.817 67.4109V67.6014C113.296 67.6014 112.851 67.3855 112.534 66.9537L112.521 66.9664ZM121.881 60.6672H121.792V41.1348H124.18V49.4913H126.923V52.1964H124.18V58.94C124.18 60.0322 123.786 60.6672 122.999 60.6672H121.881ZM122.986 60.4767C123.646 60.4767 123.976 60.0195 123.989 58.94V52.0059H126.732V49.6691H123.989V41.3126H121.97V60.4767H122.986ZM108.368 56.8953V54.1649H111.442V48.3483H113.791V54.1649H115.455C116.357 54.1649 117.233 54.1141 118.096 53.9998C118.96 53.8855 119.912 53.6569 120.979 53.314L121.094 53.2759V54.838C121.094 55.2698 121.03 55.5873 120.865 55.7905C120.713 55.981 120.497 56.1334 120.217 56.2477C119.633 56.489 118.782 56.654 117.639 56.7556C116.509 56.8445 115.226 56.8953 113.817 56.8953H108.368ZM108.559 56.7176H113.817C115.226 56.7176 116.496 56.6667 117.627 56.5779C118.757 56.489 119.595 56.3239 120.141 56.0826C120.395 55.981 120.586 55.8413 120.725 55.6762C120.84 55.5365 120.916 55.2444 120.916 54.838V53.5299C119.887 53.8601 118.96 54.076 118.122 54.1903C117.246 54.3046 116.357 54.3554 115.455 54.3554H113.601V48.5388H111.619V54.3554H108.546V56.7176H108.559ZM116.395 51.6249L116.42 51.5487C116.687 50.5581 116.903 49.5294 117.055 48.488C117.207 47.4466 117.284 46.3925 117.284 45.3511C117.284 45.2114 117.258 45.1225 117.246 45.0971C117.246 45.0971 117.207 45.059 117.119 45.059H109.702H109.613V42.354H118.185C118.681 42.354 119.062 42.5572 119.303 42.9509C119.532 43.3318 119.646 43.8017 119.646 44.3224V44.7034C119.646 45.2368 119.62 45.8591 119.557 46.5449C119.493 47.2434 119.404 47.9419 119.277 48.6404C119.163 49.3389 119.011 50.0247 118.846 50.6724C118.681 51.3201 118.477 51.8789 118.262 52.3234L118.223 52.3996L116.395 51.6122V51.6249ZM118.135 52.171C118.338 51.7519 118.503 51.2312 118.668 50.6343C118.833 49.9866 118.985 49.3262 119.1 48.615C119.214 47.9165 119.316 47.218 119.366 46.5322C119.43 45.8464 119.455 45.2368 119.455 44.7034V44.3224C119.455 43.8144 119.354 43.3953 119.138 43.0398C118.922 42.6969 118.617 42.5318 118.173 42.5318H109.778V44.8685H117.093C117.207 44.8685 117.322 44.8939 117.385 44.9955C117.436 45.0844 117.449 45.186 117.449 45.3511C117.449 46.4052 117.373 47.4593 117.22 48.5134C117.068 49.5421 116.865 50.5454 116.598 51.5233L118.122 52.171H118.135Z" fill="#27BDBE"/>
<path d="M130.174 57.4414C130.174 57.6192 130.212 57.7589 130.276 57.8351C130.339 57.9113 130.492 57.9494 130.746 57.9494C132.13 57.9494 133.565 57.8859 135.038 57.7462C136.511 57.6065 137.908 57.4033 139.216 57.1239V58.6987C139.216 59.0162 139.14 59.2575 138.988 59.4226C138.835 59.5877 138.67 59.6893 138.492 59.7274C137.921 59.8417 137.299 59.9433 136.626 60.0322C135.94 60.1211 135.241 60.1973 134.505 60.2608C133.768 60.3243 133.019 60.3751 132.257 60.4005C131.495 60.4259 130.746 60.4386 130.009 60.4386C129.272 60.4386 128.79 60.2862 128.472 59.9814C128.167 59.6766 128.002 59.0543 128.002 58.1145V49.8977H134.136C134.301 49.8977 134.403 49.8469 134.467 49.758C134.53 49.6691 134.555 49.504 134.555 49.2881V44.9193H127.99V42.4301H136.714V50.4057C136.714 51.0026 136.575 51.4725 136.295 51.8408C136.016 52.2091 135.61 52.3995 135.051 52.3995H130.161V57.4668L130.174 57.4414ZM140.804 67.5124V41.2236H143.001V65.8234C143.001 66.4329 142.912 66.8647 142.734 67.1187C142.556 67.3727 142.302 67.4997 141.947 67.4997H140.791L140.804 67.5124Z" fill="#27BDBE"/>
<path d="M141.96 67.6141H140.804H140.715V41.1348H143.103V65.8361C143.103 66.4584 143.014 66.9029 142.823 67.195C142.633 67.4744 142.341 67.6268 141.972 67.6268L141.96 67.6141ZM141.96 67.4236C142.29 67.4236 142.506 67.3093 142.671 67.0807C142.823 66.8521 142.925 66.433 142.912 65.8361V41.3253H140.893V67.4363H141.947L141.96 67.4236ZM128.396 60.0449C128.053 59.702 127.901 59.0543 127.901 58.1145V49.7961H134.136C134.276 49.7961 134.352 49.758 134.39 49.6945C134.39 49.6945 134.467 49.4913 134.467 49.2754V44.9955H127.901V42.3159H136.816V50.3803C136.816 50.9899 136.676 51.4852 136.384 51.8789C136.092 52.2726 135.635 52.4758 135.064 52.4758H130.263V57.4541C130.263 57.6319 130.301 57.7335 130.339 57.7843C130.339 57.7843 130.504 57.8605 130.733 57.8605C132.117 57.8605 133.54 57.797 135.013 57.6573C136.486 57.5176 137.87 57.3144 139.178 57.035L139.293 57.0096V58.6987C139.293 59.0289 139.204 59.2956 139.039 59.4861C138.873 59.6639 138.696 59.7782 138.492 59.8163C137.921 59.9306 137.299 60.0322 136.626 60.1211C135.94 60.21 135.229 60.2862 134.505 60.3497C133.768 60.4132 133.019 60.464 132.244 60.4894C131.469 60.5148 130.733 60.5275 129.996 60.5275C129.272 60.5275 128.726 60.3751 128.396 60.0449ZM128.091 58.1018C128.091 59.0289 128.244 59.6385 128.523 59.9052C128.802 60.1846 129.285 60.337 129.996 60.337C130.72 60.337 131.469 60.3243 132.231 60.2989C132.993 60.2735 133.743 60.2227 134.479 60.1592C135.216 60.0957 135.914 60.0195 136.6 59.9306C137.273 59.8417 137.896 59.7401 138.467 59.6258C138.619 59.6004 138.772 59.4988 138.912 59.3464C139.039 59.2067 139.115 58.9908 139.115 58.686V57.2255C137.832 57.4922 136.486 57.6954 135.051 57.8224C133.578 57.9621 132.143 58.0256 130.746 58.0256C130.492 58.0256 130.326 58.0002 130.212 57.8859C130.123 57.7843 130.085 57.6319 130.085 57.4414V52.2853H135.064C135.597 52.2853 135.978 52.1075 136.232 51.7646C136.499 51.409 136.626 50.9518 136.626 50.3803V42.5064H128.079V44.8177H134.644V49.2881C134.644 49.5167 134.619 49.6818 134.543 49.8088C134.467 49.9358 134.314 49.9866 134.136 49.9866H128.091V58.1145V58.1018Z" fill="#27BDBE"/>
<path d="M145.325 48.869C145.325 47.7641 145.465 46.7862 145.731 45.9353C145.998 45.0844 146.366 44.3732 146.836 43.789C147.306 43.2048 147.852 42.7603 148.487 42.4555C149.122 42.1507 149.808 41.9983 150.545 41.9983C151.281 41.9983 151.954 42.1507 152.577 42.4555C153.199 42.7603 153.745 43.2048 154.202 43.789C154.66 44.3732 155.015 45.0844 155.282 45.9353C155.548 46.7862 155.675 47.7641 155.701 48.869C155.701 49.9231 155.574 50.8756 155.32 51.7265C155.066 52.59 154.698 53.3139 154.24 53.9108C153.771 54.5077 153.224 54.9776 152.589 55.2951C151.954 55.6126 151.281 55.7777 150.545 55.7777C149.808 55.7777 149.16 55.6253 148.525 55.3205C147.89 55.0157 147.344 54.5712 146.874 53.987C146.405 53.4028 146.024 52.6917 145.757 51.8281C145.477 50.9645 145.338 49.9739 145.338 48.8563M147.535 48.8309C147.535 49.5675 147.624 50.2152 147.802 50.7486C147.979 51.2947 148.208 51.7392 148.487 52.1075C148.767 52.463 149.097 52.7424 149.453 52.9202C149.821 53.1107 150.176 53.1996 150.545 53.1996C150.989 53.1996 151.396 53.098 151.751 52.8821C152.12 52.6662 152.424 52.3742 152.678 51.9805C152.932 51.5868 153.136 51.1296 153.275 50.5962C153.415 50.0628 153.491 49.4659 153.491 48.8309C153.491 48.1959 153.415 47.599 153.263 47.0783C153.11 46.5576 152.894 46.1004 152.64 45.7194C152.374 45.3384 152.069 45.0463 151.713 44.8431C151.358 44.6399 150.964 44.5383 150.557 44.5383C150.151 44.5383 149.732 44.6526 149.364 44.8685C148.995 45.0844 148.678 45.3892 148.411 45.7829C148.144 46.1766 147.929 46.6211 147.776 47.1545C147.624 47.6752 147.548 48.234 147.548 48.8309M150.519 67.5124C150.011 67.5124 149.605 67.3092 149.313 66.9028C149.021 66.4964 148.868 65.9757 148.868 65.3281V59.1051H151.065V64.4772C151.065 64.8328 151.142 64.9979 151.307 64.9979H161.454V66.3821C161.454 66.7504 161.39 67.0298 161.251 67.233C161.111 67.4235 160.895 67.5251 160.578 67.5251H150.519V67.5124ZM158.787 60.21V41.2236H160.971V58.3558C160.971 58.94 160.895 59.3972 160.73 59.7274C160.565 60.0449 160.286 60.21 159.879 60.21H158.787Z" fill="#27BDBE"/>
<path d="M160.578 67.6014H150.519V67.4236H160.578C160.87 67.4236 161.047 67.3347 161.174 67.1696C161.289 67.0045 161.352 66.7378 161.352 66.3822V65.0868H151.307C151.053 65.0868 150.976 64.8201 150.976 64.4645V59.1813H148.957V65.3154C148.957 65.9504 149.097 66.4457 149.389 66.8394C149.668 67.2204 150.037 67.4109 150.519 67.4109V67.5887C149.986 67.5887 149.541 67.3728 149.237 66.941C148.932 66.5092 148.779 65.9631 148.779 65.3154V58.9908H151.167V64.4518C151.167 64.8074 151.256 64.8836 151.319 64.8836H161.555V66.3568C161.555 66.7378 161.479 67.0299 161.34 67.2585C161.187 67.4871 160.933 67.5887 160.603 67.5887L160.578 67.6014ZM159.879 60.2989H158.787H158.698V41.1221H161.06V58.3431C161.06 58.94 160.984 59.4099 160.806 59.7528C160.641 60.1084 160.311 60.2862 159.892 60.2862L159.879 60.2989ZM159.879 60.1211C160.26 60.1211 160.501 59.9814 160.641 59.6893C160.793 59.3845 160.87 58.94 160.87 58.3558V41.3126H158.876V60.1084H159.879V60.1211ZM148.475 55.4095C147.827 55.1047 147.268 54.6475 146.785 54.0633C146.303 53.4664 145.922 52.7425 145.642 51.8789C145.363 51.0153 145.223 50.012 145.223 48.8817C145.223 47.7641 145.363 46.7735 145.63 45.9226C145.896 45.0717 146.277 44.3351 146.747 43.751C147.217 43.1541 147.776 42.7096 148.424 42.3921C149.071 42.0746 149.77 41.9222 150.519 41.9222C151.256 41.9222 151.954 42.0746 152.589 42.3921C153.224 42.6969 153.783 43.1541 154.253 43.751C154.723 44.3478 155.079 45.0717 155.345 45.9226C155.612 46.7862 155.752 47.7641 155.764 48.8817C155.764 49.9358 155.637 50.901 155.371 51.7646C155.117 52.6282 154.748 53.3775 154.278 53.9871C153.809 54.5967 153.25 55.0666 152.602 55.3968C151.954 55.727 151.256 55.8921 150.519 55.8921C149.795 55.8921 149.11 55.7397 148.462 55.4222L148.475 55.4095ZM145.427 48.869C145.427 49.9866 145.566 50.9645 145.833 51.8154C146.1 52.6663 146.468 53.3775 146.938 53.949C147.408 54.5205 147.941 54.9523 148.563 55.2571C149.186 55.5619 149.846 55.7016 150.545 55.7016C151.256 55.7016 151.916 55.5492 152.539 55.2317C153.161 54.9142 153.694 54.457 154.151 53.8728C154.609 53.2886 154.964 52.5647 155.218 51.7138C155.472 50.8629 155.599 49.9231 155.599 48.8817C155.587 47.7768 155.447 46.8116 155.193 45.9734C154.926 45.1352 154.571 44.424 154.126 43.8525C153.682 43.2811 153.148 42.8493 152.539 42.5445C151.929 42.2524 151.269 42.1 150.545 42.1C149.821 42.1 149.148 42.2524 148.525 42.5445C147.903 42.8366 147.37 43.2811 146.912 43.8525C146.455 44.424 146.1 45.1225 145.833 45.9734C145.566 46.8116 145.439 47.7768 145.439 48.8817L145.427 48.869ZM149.402 53.0092C149.021 52.8187 148.69 52.5393 148.398 52.171C148.106 51.8027 147.878 51.3328 147.7 50.7867C147.522 50.2279 147.433 49.5802 147.433 48.8309C147.433 48.234 147.509 47.6625 147.674 47.1291C147.827 46.5957 148.043 46.1258 148.322 45.7321C148.589 45.3384 148.919 45.0209 149.3 44.7923C149.681 44.5637 150.087 44.4494 150.545 44.4494C150.976 44.4494 151.383 44.551 151.751 44.7669C152.119 44.9828 152.437 45.2749 152.716 45.6686C152.983 46.0496 153.199 46.5195 153.351 47.0529C153.504 47.5863 153.593 48.1832 153.593 48.8436C153.593 49.4913 153.516 50.0882 153.377 50.6343C153.237 51.1804 153.034 51.6503 152.767 52.044C152.5 52.4377 152.183 52.7552 151.815 52.9711C151.434 53.187 151.015 53.3013 150.557 53.3013C150.176 53.3013 149.795 53.1997 149.427 53.0219L149.402 53.0092ZM147.878 50.7232C148.055 51.2566 148.271 51.7011 148.551 52.0567C148.83 52.4123 149.135 52.6663 149.491 52.8441C149.846 53.0219 150.189 53.1108 150.545 53.1108C150.976 53.1108 151.357 53.0092 151.713 52.806C152.069 52.6028 152.361 52.3107 152.615 51.9297C152.869 51.5487 153.059 51.1042 153.199 50.5708C153.339 50.0501 153.402 49.4659 153.402 48.8309C153.402 48.1959 153.326 47.6117 153.174 47.1037C153.021 46.583 152.818 46.1385 152.564 45.7702C152.31 45.4019 152.005 45.1225 151.662 44.9193C151.319 44.7288 150.951 44.6272 150.545 44.6272C150.126 44.6272 149.745 44.7288 149.402 44.9447C149.046 45.1606 148.741 45.4527 148.475 45.8337C148.208 46.2147 148.005 46.6592 147.852 47.1799C147.7 47.7006 147.624 48.2467 147.624 48.8309C147.624 49.5548 147.713 50.1898 147.878 50.7232Z" fill="#27BDBE"/>
<path d="M180.847 53.2123V54.3807C180.847 55.2696 180.542 55.7141 179.92 55.7141H162.622V53.225H180.847V53.2123ZM173.125 43.8778C173.481 44.9446 174.192 46.0114 175.284 47.0655C176.376 48.1196 177.799 48.9578 179.551 49.5801L178.345 51.6502C177.773 51.447 177.189 51.1676 176.567 50.7866C175.945 50.4183 175.348 49.9992 174.763 49.5166C174.179 49.034 173.633 48.5133 173.112 47.9672C172.604 47.4084 172.16 46.8496 171.792 46.2781C171.449 46.8877 171.004 47.4719 170.496 48.0307C169.976 48.5895 169.429 49.1102 168.845 49.5674C168.261 50.0246 167.651 50.4437 167.042 50.7993C166.42 51.1549 165.848 51.447 165.302 51.6375L164.07 49.5674C165.835 48.9197 167.245 48.1069 168.299 47.1036C169.353 46.113 170.103 45.0335 170.534 43.8651H165.238V41.4521H178.37V42.5316C178.37 43.4206 178.065 43.8651 177.443 43.8651H173.138L173.125 43.8778ZM165.061 63.0293C165.061 62.1276 165.251 61.3402 165.645 60.6925C166.039 60.0321 166.547 59.4987 167.194 59.0796C167.829 58.6605 168.553 58.3303 169.353 58.1271C170.153 57.9112 170.966 57.8096 171.792 57.8096C172.617 57.8096 173.405 57.9112 174.192 58.1271C174.979 58.343 175.691 58.6605 176.313 59.0796C176.935 59.4987 177.443 60.0448 177.824 60.7179C178.205 61.3783 178.396 62.153 178.396 63.042C178.396 63.8675 178.218 64.6041 177.849 65.2264C177.481 65.8487 176.999 66.3694 176.389 66.7885C175.779 67.2076 175.068 67.5124 174.281 67.7283C173.481 67.9442 172.655 68.0458 171.792 68.0458C170.928 68.0458 170.153 67.9569 169.353 67.7791C168.553 67.6013 167.829 67.3092 167.194 66.9028C166.559 66.4964 166.039 65.9757 165.645 65.3534C165.251 64.7311 165.061 63.9564 165.061 63.0293ZM167.334 63.0293C167.334 63.4484 167.461 63.8167 167.702 64.1342C167.944 64.4517 168.274 64.7057 168.68 64.9089C169.087 65.1121 169.569 65.2645 170.103 65.3788C170.636 65.4931 171.207 65.5439 171.792 65.5439C172.376 65.5439 172.909 65.4931 173.43 65.3915C173.951 65.2899 174.421 65.1375 174.827 64.9216C175.233 64.7057 175.551 64.4517 175.792 64.1342C176.033 63.8167 176.16 63.4484 176.16 63.0293C176.16 62.6102 176.033 62.1911 175.792 61.8482C175.551 61.5053 175.233 61.2259 174.84 61.01C174.446 60.7941 173.976 60.6163 173.455 60.502C172.935 60.3877 172.389 60.3242 171.817 60.3242C171.207 60.3242 170.636 60.3877 170.103 60.502C169.569 60.6163 169.087 60.7941 168.68 61.01C168.274 61.2259 167.944 61.518 167.702 61.8482C167.461 62.1911 167.334 62.5848 167.334 63.0293Z" fill="#27BDBE"/>
<path d="M169.341 67.868C168.528 67.6902 167.804 67.3981 167.156 66.9917C166.509 66.5726 165.975 66.0519 165.581 65.4169C165.175 64.7692 164.985 63.9818 164.985 63.042C164.985 62.1276 165.188 61.3275 165.581 60.6544C165.975 59.994 166.509 59.4352 167.156 59.0034C167.804 58.5716 168.54 58.2541 169.341 58.0382C170.153 57.8223 170.966 57.7207 171.792 57.7207C172.604 57.7207 173.417 57.8223 174.217 58.0382C175.005 58.2541 175.729 58.5716 176.364 59.0034C176.999 59.4352 177.519 59.994 177.913 60.6671C178.307 61.3529 178.497 62.1403 178.497 63.042C178.497 63.8929 178.307 64.6295 177.938 65.2772C177.57 65.9122 177.075 66.4456 176.44 66.8647C175.818 67.2838 175.106 67.6013 174.306 67.8172C173.506 68.0331 172.668 68.1347 171.792 68.1347C170.966 68.1347 170.141 68.0458 169.341 67.868ZM165.162 63.0293C165.162 63.9437 165.353 64.693 165.734 65.3026C166.115 65.9122 166.623 66.4202 167.245 66.8266C167.88 67.2203 168.591 67.5124 169.379 67.6902C170.179 67.868 170.979 67.9569 171.792 67.9569C172.643 67.9569 173.468 67.8553 174.255 67.6394C175.043 67.4235 175.729 67.1187 176.338 66.7123C176.935 66.3059 177.418 65.7979 177.773 65.1756C178.129 64.566 178.307 63.8548 178.307 63.0293C178.307 62.153 178.116 61.4037 177.748 60.756C177.367 60.1083 176.872 59.5749 176.262 59.1558C175.64 58.7367 174.941 58.4192 174.167 58.216C173.379 58.0128 172.592 57.8985 171.792 57.8985C170.979 57.8985 170.179 58.0001 169.379 58.216C168.591 58.4319 167.88 58.7367 167.245 59.1558C166.61 59.5749 166.115 60.1083 165.721 60.7433C165.34 61.3783 165.15 62.1403 165.15 63.0293H165.162ZM170.077 65.4804C169.531 65.3661 169.048 65.2137 168.629 64.9978C168.21 64.7946 167.867 64.5152 167.613 64.1977C167.359 63.8675 167.232 63.4738 167.232 63.0293C167.232 62.5721 167.359 62.153 167.613 61.7974C167.867 61.4418 168.198 61.1497 168.629 60.9211C169.048 60.6925 169.531 60.5274 170.077 60.4004C170.623 60.2734 171.207 60.2226 171.817 60.2226C172.389 60.2226 172.935 60.2861 173.468 60.4004C174.001 60.5274 174.471 60.6925 174.878 60.9211C175.284 61.1497 175.614 61.4418 175.868 61.7974C176.122 62.153 176.249 62.5721 176.249 63.0293C176.249 63.4738 176.122 63.8675 175.868 64.1977C175.614 64.5279 175.284 64.7946 174.865 65.0105C174.446 65.2264 173.976 65.3915 173.443 65.4931C172.909 65.5947 172.363 65.6455 171.792 65.6455C171.195 65.6455 170.623 65.5947 170.077 65.4804ZM167.766 64.0834C167.994 64.3882 168.312 64.6295 168.718 64.8327C169.125 65.0359 169.582 65.1883 170.115 65.2899C170.649 65.4042 171.207 65.455 171.792 65.455C172.35 65.455 172.897 65.4042 173.417 65.3026C173.938 65.201 174.395 65.0486 174.789 64.8454C175.183 64.6422 175.5 64.3882 175.729 64.0834C175.957 63.7786 176.072 63.4357 176.072 63.0293C176.072 62.6102 175.957 62.2292 175.729 61.9117C175.5 61.5815 175.183 61.3148 174.802 61.0989C174.408 60.883 173.963 60.7179 173.443 60.5909C172.922 60.4766 172.389 60.4131 171.83 60.4131C171.233 60.4131 170.661 60.4766 170.128 60.5909C169.595 60.7052 169.125 60.883 168.731 61.0989C168.337 61.3148 168.02 61.5815 167.779 61.9117C167.55 62.2419 167.436 62.6102 167.436 63.0293C167.436 63.4357 167.55 63.7786 167.779 64.0834H167.766ZM162.533 55.7904V53.1107H180.847H180.936V54.368C180.936 55.2697 180.593 55.7904 179.92 55.7904H162.533ZM162.711 55.5999H179.907C180.466 55.5999 180.732 55.2316 180.745 54.368V53.3012H162.711V55.5999ZM178.307 51.7391C177.735 51.5359 177.138 51.2438 176.516 50.8755C175.894 50.5072 175.284 50.0754 174.7 49.5928C174.116 49.1102 173.557 48.5895 173.049 48.0307C172.566 47.51 172.16 46.9893 171.804 46.4559C171.461 47.0274 171.055 47.5735 170.572 48.1069C170.052 48.6784 169.493 49.1864 168.909 49.6563C168.325 50.1262 167.715 50.5326 167.093 50.9009C166.47 51.2692 165.886 51.5486 165.34 51.7518L165.264 51.7772L163.93 49.542L164.032 49.5039C165.785 48.8562 167.182 48.0434 168.236 47.0655C169.239 46.113 169.963 45.0843 170.395 43.9921H165.15V41.4014H178.459V42.5698C178.459 43.4715 178.116 43.9921 177.443 43.9921H173.265C173.62 45.0081 174.319 46.0114 175.36 47.0147C176.44 48.0561 177.85 48.8943 179.589 49.5166L179.691 49.5547L178.383 51.7899L178.307 51.7645V51.7391ZM171.868 46.24C172.236 46.8115 172.668 47.3703 173.176 47.9164C173.684 48.4625 174.23 48.9832 174.814 49.4531C175.398 49.923 175.995 50.3548 176.605 50.7231C177.189 51.0787 177.761 51.3454 178.294 51.5486L179.412 49.6309C177.697 49.0086 176.3 48.1704 175.221 47.129C174.128 46.0749 173.392 44.9954 173.036 43.9033L172.998 43.789H177.43C177.989 43.789 178.256 43.4207 178.269 42.5571V41.5665H165.327V43.789H170.661L170.611 43.916C170.179 45.097 169.417 46.1892 168.363 47.1925C167.309 48.1831 165.924 48.9959 164.197 49.6309L165.327 51.5486C165.835 51.3581 166.394 51.0787 166.978 50.7358C167.588 50.3802 168.185 49.9738 168.769 49.5166C169.353 49.0594 169.899 48.5514 170.407 47.9926C170.915 47.4338 171.347 46.8496 171.703 46.2527L171.779 46.1257L171.855 46.2527L171.868 46.24Z" fill="#27BDBE"/>
<path d="M46.6721 78.5234V92.3028H60.0324V78.5234H68.1223V114.375H60.0324V99.3767H46.6721V114.375H38.5315V78.5234H46.6721Z" fill="#27BDBE"/>
<path d="M80.3524 105.181L77.7997 114.388H69.3923L80.3524 78.5361H90.9949L102.12 114.388H93.3952L90.6266 105.181H80.3651H80.3524ZM89.4455 99.11L87.2103 91.5027C86.5753 89.3692 85.9403 86.7149 85.4069 84.5813H85.3053C84.7719 86.7149 84.2385 89.42 83.6543 91.5027L81.5207 99.11H89.4455Z" fill="#27BDBE"/>
<path d="M128.701 113.372C127.215 114.121 123.862 114.909 119.493 114.909C107.098 114.909 100.71 107.2 100.71 96.9766C100.71 84.7466 109.435 77.9268 120.293 77.9268C124.497 77.9268 127.685 78.7776 129.12 79.5269L127.469 85.9658C125.818 85.28 123.532 84.6323 120.662 84.6323C114.223 84.6323 109.219 88.5185 109.219 96.494C109.219 103.669 113.474 108.203 120.713 108.203C123.164 108.203 125.869 107.67 127.469 107.035L128.688 113.359L128.701 113.372Z" fill="#27BDBE"/>
<path d="M155.561 113.372C154.075 114.121 150.722 114.909 146.354 114.909C133.959 114.909 127.571 107.2 127.571 96.9766C127.571 84.7466 136.295 77.9268 147.154 77.9268C151.357 77.9268 154.545 78.7776 155.98 79.5269L154.329 85.9658C152.678 85.28 150.392 84.6323 147.522 84.6323C141.083 84.6323 136.079 88.5185 136.079 96.494C136.079 103.669 140.334 108.203 147.573 108.203C150.024 108.203 152.729 107.67 154.329 107.035L155.548 113.359L155.561 113.372Z" fill="#27BDBE"/>
<path d="M157.695 79.0061C160.197 78.587 163.702 78.2695 168.655 78.2695C173.608 78.2695 177.214 79.222 179.615 81.1397C181.901 82.9431 183.45 85.9276 183.45 89.4327C183.45 92.9379 182.282 95.9224 180.148 97.9417C177.38 100.545 173.29 101.714 168.502 101.714C167.436 101.714 166.483 101.663 165.734 101.548V114.375H157.695V78.9934V79.0061ZM165.721 95.2874C166.407 95.4525 167.258 95.5033 168.439 95.5033C172.744 95.5033 175.411 93.3189 175.411 89.6486C175.411 86.3467 173.125 84.3782 169.074 84.3782C167.423 84.3782 166.305 84.5433 165.721 84.6957V95.2874Z" fill="#27BDBE"/>
<path d="M182.828 109.474C183.006 110.223 183.12 110.972 183.12 111.734C183.12 126.238 149.491 137.998 108 137.998C66.5094 137.998 32.8801 126.238 32.8801 111.734C32.8801 110.972 32.9944 110.223 33.1722 109.474C27.8636 113.385 24.8792 117.779 24.8792 122.428C24.8792 138.836 62.0899 152.133 108 152.133C153.91 152.133 191.121 138.836 191.121 122.428C191.121 117.779 188.136 113.385 182.828 109.474Z" fill="#FBB03F"/>
<path d="M108 0C48.3485 0 0 48.3485 0 108C0 167.651 48.3485 216 108 216C167.651 216 216 167.651 216 108C216 48.3485 167.651 0 108 0ZM108 7.48024C163.511 7.48024 208.52 52.4887 208.52 108C208.52 127.774 202.805 146.214 192.95 161.759H23.063C13.2079 146.214 7.49294 127.774 7.49294 108C7.48024 52.4887 52.4887 7.48024 108 7.48024Z" fill="#27BDBE"/>
<path d="M52.3617 176.668C51.7521 177.773 49.555 179.665 47.8024 180.16L46.9642 178.56C49.0597 177.532 51.333 175.855 51.333 173.353V171.639H53.5936V173.328C53.5936 175.741 55.6637 177.519 57.9497 178.586L57.1242 180.16C55.3208 179.538 53.5428 178.103 52.3617 176.668ZM58.6481 182.751H48.7041V181.215H60.896V186.853H58.6354V182.751H58.6481ZM58.6481 171.296H60.9087V180.364H58.6481V171.296Z" fill="white"/>
<path d="M70.7766 181.419H75.7549V186.88H63.563V181.419H68.5414V180.149H62.8264V178.612H76.4915V180.149H70.7766V181.419ZM63.5503 175.92H65.2394V173.176H63.5503V171.64H75.7422V173.176H74.0277V175.92H75.7422V177.456H63.5503V175.92ZM65.8109 185.343H73.4943V182.955H65.8109V185.343ZM67.5 175.92H71.7925V173.176H67.5V175.92Z" fill="white"/>
<path d="M89.5852 184.783C88.3914 185.304 87.477 185.317 86.1816 185.317H78.1553V183.805H86.7658C87.7818 183.805 88.5311 183.64 89.4836 183.323C89.5725 183.234 89.5725 171.296 89.5725 171.296H91.8204V186.853H89.5725V184.783H89.5852ZM82.9304 171.423C88.9883 171.423 89.0645 181.875 82.9304 181.875C76.7964 181.875 76.8853 171.423 82.9304 171.423ZM82.9304 180.364C86.0038 180.364 86.0038 172.998 82.9304 172.998C79.8571 172.998 79.8825 180.364 82.9304 180.364Z" fill="white"/>
<path d="M97.6877 171.461C103.873 171.461 103.86 180.021 97.6877 180.021C91.5156 180.021 91.4648 171.461 97.6877 171.461ZM104.431 182.586H94.4874V181.075H106.667V186.853H104.431V182.586ZM97.6877 178.332C100.761 178.332 100.736 173.163 97.6877 173.163C94.6398 173.163 94.4874 178.332 97.6877 178.332ZM106.667 180.186H104.431V171.296H106.667V173.188H108.445V174.877H106.667V176.427H108.445V178.116H106.667V180.173V180.186Z" fill="white"/>
<path d="M117.068 181.419H122.046V186.88H109.841V181.419H114.82V180.149H109.105V178.612H122.77V180.149H117.055V181.419H117.068ZM109.841 175.92H111.531V173.176H109.841V171.64H122.046V173.176H120.332V175.92H122.046V177.456H109.841V175.92ZM112.102 185.343H119.785V182.955H112.102V185.343ZM113.791 175.92H118.084V173.176H113.791V175.92Z" fill="white"/>
<path d="M128.714 171.461C134.695 171.461 134.682 180.707 128.726 180.707C122.77 180.707 122.808 171.461 128.714 171.461ZM125.92 181.926H128.155V185.317H137.705V186.853H125.907V181.926H125.92ZM128.739 179.005C131.749 179.005 131.673 173.15 128.726 173.15C125.78 173.15 125.767 179.005 128.739 179.005ZM137.527 182.573H135.292V171.296H137.527V175.22H139.305V176.935H137.527V182.573Z" fill="white"/>
<path d="M145.033 177.417C144.258 178.382 142.061 180.275 140.385 180.783L139.547 179.183C141.642 178.052 143.915 176.554 143.915 173.95V173.163H140.41V171.626H149.592V173.163H146.176V173.925C146.176 176.338 148.437 178.205 150.507 179.183L149.694 180.757C147.967 180.173 146.036 178.763 145.033 177.405M141.668 181.735H143.725V185.317H153.669V186.853H141.668V181.735ZM151.218 176.414H148.983V174.877H151.218V171.283H153.466V182.396H151.218V176.401V176.414Z" fill="white"/>
<path d="M160.273 181.824C159.498 183.196 157.53 184.809 156.107 185.469L155.231 183.932C157.796 182.243 159.155 180.529 159.155 177.379V173.849H156.158V172.312H159.155V170.94H161.39V172.312H164.4V173.849H161.39V177.405C161.39 180.3 162.787 182.459 165.327 183.932L164.451 185.469C162.851 184.771 161.276 183.221 160.286 181.824M166.47 177.951H163.841V176.414H166.47V171.271H168.706V186.841H166.47V177.938V177.951Z" fill="white"/>
</g>
<defs>
<clipPath id="clip0_27_1684">
<rect width="216" height="216" fill="white"/>
</clipPath>
</defs>
</svg>
